<svg width="16" height="26" viewBox="0 0 16 26" fill="none" xmlns="http://www.w3.org/2000/svg">
<path d="M15.1865 13.0845C15.1865 12.7446 15.0576 12.4634 14.8115 12.229L2.76465 0.63916C2.54199 0.416504 2.26074 0.299316 1.93262 0.299316C1.27637 0.299316 0.760742 0.791504 0.760742 1.45947C0.760742 1.77588 0.889648 2.06885 1.10059 2.27979L12.3271 13.0845L1.10059 23.8774C0.889648 24.0884 0.760742 24.3696 0.760742 24.6978C0.760742 25.3657 1.27637 25.8696 1.93262 25.8696C2.26074 25.8696 2.54199 25.7407 2.76465 25.5298L14.8115 13.9399C15.0576 13.6938 15.1865 13.4126 15.1865 13.0845Z" fill="#1C1C1E"/>
</svg>
