<svg width="29" height="29" viewBox="0 0 29 29" fill="none" xmlns="http://www.w3.org/2000/svg">
<path d="M20.4304 14.2439C18.837 12.6559 16.7215 11.7878 14.4705 11.7935C9.85425 11.8095 6.09863 15.6151 6.09863 20.2769V21.4643C6.09863 23.1436 6.95946 24.6598 8.40142 25.5204C9.84327 26.3809 11.5866 26.4189 13.0645 25.6217C13.9634 25.1369 15.0368 25.1369 15.9357 25.6217C16.6437 26.0036 17.4123 26.1938 18.1799 26.1938C19.0144 26.1937 19.8477 25.9687 20.5988 25.5204C22.0407 24.6598 22.9016 23.1435 22.9016 21.4643V20.1949C22.9015 17.9453 22.024 15.8319 20.4304 14.2439Z" fill="white"/>
<path d="M5.53662 9.68772L5.08191 9.35734C3.65377 8.31973 1.64778 8.63749 0.610295 10.0656H0.610238C-0.427307 11.4937 -0.109609 13.4996 1.31853 14.5372L1.77324 14.8676C2.34022 15.2796 2.99827 15.4779 3.65071 15.4779C4.64153 15.4779 5.61932 15.0204 6.24497 14.1594C7.2824 12.7313 6.96471 10.7253 5.53662 9.68772Z" fill="white"/>
<path d="M28.3894 10.1418C27.3519 8.71369 25.3458 8.39587 23.9177 9.43353L23.463 9.76392C22.035 10.8015 21.7172 12.8075 22.7548 14.2356C23.3805 15.0968 24.3581 15.5541 25.349 15.5541C26.0013 15.5541 26.6596 15.3557 27.2265 14.9438L27.6812 14.6134C29.1093 13.5758 29.427 11.5699 28.3894 10.1418Z" fill="white"/>
<path d="M13.4024 6.4425L12.9402 5.01986C12.676 4.20661 12.1108 3.54493 11.3488 3.15672C10.587 2.76844 9.71939 2.70019 8.9062 2.96448C8.09295 3.22871 7.43122 3.79381 7.04295 4.55574C6.65468 5.31767 6.58642 6.18518 6.85071 6.99843L7.31295 8.42108C7.75209 9.77247 9.01019 10.6335 10.3599 10.6335C10.6869 10.6335 11.0196 10.5829 11.347 10.4765H11.347C12.1602 10.2123 12.8219 9.64712 13.2102 8.88519C13.5984 8.12326 13.6666 7.25575 13.4024 6.4425Z" fill="white"/>
<path d="M20.0939 2.99291C18.415 2.4474 16.6054 3.36952 16.06 5.04835L15.5977 6.47094C15.3335 7.28418 15.4018 8.15169 15.7899 8.91362C16.1781 9.67556 16.8399 10.2407 17.6531 10.5049C17.9806 10.6113 18.313 10.6619 18.6401 10.6619C19.9898 10.6619 21.248 9.8009 21.6871 8.44951L22.1494 7.02686C22.6948 5.34803 21.7727 3.53842 20.0939 2.99291Z" fill="white"/>
</svg>
